<?xml version="1.0" encoding="iso-8859-1"?>
<!-- Generator: Adobe Illustrator 19.0.0, SVG Export Plug-In . SVG Version: 6.00 Build 0)  -->
<svg version="1.1" id="Capa_1" xmlns="http://www.w3.org/2000/svg" xmlns:xlink="http://www.w3.org/1999/xlink" x="0px"
     y="0px"
     viewBox="0 0 512 512" style="enable-background:new 0 0 512 512;" xml:space="preserve">
<g>
	<g>
		<path d="M467,60c-24.814,0-45,20.186-45,45v15h90v-15C512,80.186,491.814,60,467,60z"/>
	</g>
</g>
    <g>
	<g>
		<rect x="422" y="150" width="90" height="28.755"/>
	</g>
</g>
    <g>
	<g>
		<rect x="422" y="209.16" width="90" height="182.84"/>
	</g>
</g>
    <g>
	<g>
		<path d="M422,422v15c0,5.674,29.034,61.613,31.582,66.709c5.528,11.025,21.308,11.025,26.836,0
			C482.966,498.613,512,442.674,512,437v-15H422z"/>
	</g>
</g>
    <g>
	<g>
		<path d="M379.775,73.154l-59.561-55.4C315,10.911,307.888,6.052,300,3.109V90h88.257
			C386.829,84.543,383.827,76.972,379.775,73.154z"/>
	</g>
</g>
    <g>
	<g>
		<path d="M285,120c-8.291,0-15-6.709-15-15V0H15C6.709,0,0,6.709,0,15v482c0,8.291,6.709,15,15,15h360c8.291,0,15-6.709,15-15V120
			H285z M105,180c-24.814,0-45-20.186-45-45c0-17.95,10.276-35.065,30-42.085V75c0-8.291,6.709-15,15-15s15,6.709,15,15v17.975
			c7.76,2.62,15.33,6.773,22.09,13.299c5.947,5.771,6.123,15.264,0.352,21.211c-5.771,5.962-15.264,6.123-21.211,0.352
			C105.948,113.015,90,121.406,90,135c0,8.276,6.738,15,15,15c24.814,0,45,20.186,45,45c0,18.838-11.895,35.845-29.59,42.29
			c-0.135,0.049-0.275,0.026-0.41,0.073V255c0,8.291-6.709,15-15,15s-15-6.709-15-15v-17.741
			c-9.888-3.336-19.358-9.666-27.451-19.305c-5.332-6.343-4.512-15.806,1.846-21.138c6.328-5.347,15.791-4.512,21.123,1.831
			C101.839,218.142,120,209.791,120,195C120,186.724,113.262,180,105,180z M255,452H135c-8.291,0-15-6.709-15-15
			c0-8.291,6.709-15,15-15h120c8.291,0,15,6.709,15,15C270,445.291,263.291,452,255,452z M315,392H75c-8.291,0-15-6.709-15-15
			c0-8.291,6.709-15,15-15h240c8.291,0,15,6.709,15,15C330,385.291,323.291,392,315,392z M315,332H75c-8.291,0-15-6.709-15-15
			c0-8.291,6.709-15,15-15h240c8.291,0,15,6.709,15,15C330,325.291,323.291,332,315,332z M315,270H195c-8.291,0-15-6.709-15-15
			c0-8.291,6.709-15,15-15h120c8.291,0,15,6.709,15,15S323.291,270,315,270z M315,210H195c-8.291,0-15-6.709-15-15s6.709-15,15-15
			h120c8.291,0,15,6.709,15,15S323.291,210,315,210z"/>
	</g>
</g>
    <g>
</g>
    <g>
</g>
    <g>
</g>
    <g>
</g>
    <g>
</g>
    <g>
</g>
    <g>
</g>
    <g>
</g>
    <g>
</g>
    <g>
</g>
    <g>
</g>
    <g>
</g>
    <g>
</g>
    <g>
</g>
    <g>
</g>
</svg>
