<svg xmlns="http://www.w3.org/2000/svg" viewBox="0 0 340.76 318.84"><defs><style>.cls-1,.cls-3{fill:none;}.cls-2{fill:#3d4451;}.cls-3{stroke:#3d4451;stroke-miterlimit:10;stroke-width:11px;}</style></defs><title>Private-Key</title><g id="Ebene_2"><g id="icon"><path class="cls-1" d="M220.41,252.88a22.91,22.91,0,0,0,45.78,0Z"/><path class="cls-2" d="M230.44,121A60.48,60.48,0,1,0,170,60.47,60.47,60.47,0,0,0,230.44,121Z"/><path class="cls-2" d="M225.46,188.21c34.4,0,62.29,28.46,62.29,62.86,0,.65,0,1.17-.05,1.81h53.06c-.26-62-48.06-123-107-123-53.37,0-97.6,50-105.68,106h36.76C171.31,207.88,196,188.21,225.46,188.21Z"/><path class="cls-2" d="M266.22,251.94a22.92,22.92,0,0,0-45.84,0c0,.31,0,.63,0,.94h45.78C266.2,252.57,266.22,252.25,266.22,251.94Z"/><path class="cls-3" d="M287.75,251a62.46,62.46,0,0,0-62.29-62.49,61.72,61.72,0,0,0-60.62,47.92H17.55c-6.65,0-12,7.09-12,15.5s5.4,15.5,12.05,15.5H34.19v30h20v-23h22v23h19v-30h70.09c7.12,28,31.35,46,60.18,46a62.15,62.15,0,0,0,62.24-60.21C287.72,252.49,287.75,251.6,287.75,251Zm-44.45,23.9a22.9,22.9,0,0,1-22.89-22c0-.31,0-.63,0-.94a22.92,22.92,0,0,1,45.84,0c0,.31,0,.63,0,.94A22.91,22.91,0,0,1,243.3,274.85Z"/></g></g></svg>